<?xml version="1.0" standalone="no"?>
<!DOCTYPE svg PUBLIC "-//W3C//DTD SVG 20010904//EN"
 "http://www.w3.org/TR/2001/REC-SVG-20010904/DTD/svg10.dtd">
<svg version="1.0" xmlns="http://www.w3.org/2000/svg"
 width="32.000000pt" height="32.000000pt" viewBox="0 0 32.000000 32.000000"
 preserveAspectRatio="xMidYMid meet">

<g transform="translate(0.000000,32.000000) scale(0.100000,-0.100000)"
fill="#000000" stroke="none">
<path d="M132 288 c-27 -27 5 -73 38 -53 16 10 12 52 -6 59 -20 8 -18 8 -32
-6z"/>
<path d="M82 135 c-38 -78 -39 -85 -8 -85 20 0 28 10 46 57 13 32 26 61 29 65
4 4 17 -22 30 -57 21 -59 25 -65 51 -65 l29 0 -33 73 c-32 70 -34 72 -72 75
-39 3 -39 3 -72 -63z"/>
</g>
</svg>
